<?xml version='1.0' encoding='iso-8859-1'?>
<!DOCTYPE svg PUBLIC '-//W3C//DTD SVG 1.1//EN' 'http://www.w3.org/Graphics/SVG/1.1/DTD/svg11.dtd'>
<svg version="1.1" xmlns="http://www.w3.org/2000/svg" viewBox="0 0 438.263 438.263" xmlns:xlink="http://www.w3.org/1999/xlink" enable-background="new 0 0 438.263 438.263">
  <g>
    <path d="m360.615,192.202c0.112-1.485 0.169-2.977 0.169-4.473 0-32.366-26.331-58.697-58.697-58.697-8.82,0-17.425,1.973-25.24,5.698-9.057-33.236-39.467-57.41-75.257-57.41-41.454,0-75.46,32.506-77.871,73.365-5.873-0.999-11.838-1.502-17.839-1.502-58.383,0.001-105.88,47.498-105.88,105.88 0,58.382 47.497,105.879 105.88,105.879h247.875c46.598,0 84.508-37.91 84.508-84.508 0-44.288-34.246-80.729-77.648-84.232zm-6.86,148.74h-247.875c-47.354,0-85.88-38.525-85.88-85.879s38.525-85.879 85.88-85.879c8.599,0 17.098,1.271 25.259,3.78 3.233,0.991 6.747,0.285 9.345-1.881 2.596-2.167 3.922-5.499 3.523-8.856-0.286-2.408-0.425-4.664-0.425-6.898 0-31.985 26.022-58.007 58.008-58.007 30.796,0 56.234,24.064 57.913,54.784 0.211,3.846 2.611,7.23 6.173,8.699 3.561,1.468 7.649,0.762 10.51-1.818 7.116-6.418 16.315-9.953 25.901-9.953 21.338,0 38.697,17.359 38.697,38.697 0,3.901-0.578,7.75-1.719,11.44-0.974,3.149-0.333,6.576 1.713,9.16 2.046,2.584 5.231,3.994 8.523,3.77 1.726-0.118 3.141-0.173 4.453-0.173 35.569,0 64.508,28.938 64.508,64.508s-28.938,64.506-64.507,64.506z"/>
    <path d="m202.939,243.438h-12.827v-38.955c0-5.523-4.478-10-10-10h-43.774c-5.522,0-10,4.477-10,10v38.955h-12.827c-3.809,0-7.286,2.163-8.97,5.579s-1.281,7.492 1.039,10.512l44.714,58.218c1.893,2.464 4.823,3.909 7.931,3.909s6.038-1.444 7.931-3.909l44.715-58.218c2.32-3.021 2.723-7.096 1.039-10.512s-5.162-5.579-8.971-5.579zm-44.714,51.801l-24.425-31.801h2.538c5.522,0 10-4.477 10-10v-38.955h23.774v38.955c0,5.523 4.478,10 10,10h2.537l-24.424,31.801z"/>
    <path d="m287.969,198.393c-1.893-2.464-4.823-3.909-7.931-3.909s-6.038,1.444-7.931,3.909l-44.714,58.218c-2.32,3.021-2.723,7.096-1.039,10.512s5.161,5.579 8.97,5.579h12.827v38.955c0,5.523 4.478,10 10,10h43.774c5.522,0 10-4.477 10-10v-38.955h12.827c3.809,0 7.286-2.163 8.97-5.579s1.281-7.492-1.039-10.512l-44.714-58.218zm13.957,54.309c-5.522,0-10,4.477-10,10v38.955h-23.774v-38.955c0-5.523-4.478-10-10-10h-2.538l24.425-31.801 24.425,31.801h-2.538z"/>
  </g>
</svg>
