<?xml version="1.0" encoding="iso-8859-1"?>
<!-- Generator: Adobe Illustrator 19.0.0, SVG Export Plug-In . SVG Version: 6.00 Build 0)  -->
<svg version="1.1" id="Capa_1" xmlns="http://www.w3.org/2000/svg" xmlns:xlink="http://www.w3.org/1999/xlink" x="0px" y="0px"
	 viewBox="0 0 59 59" style="enable-background:new 0 0 59 59;" xml:space="preserve">
<g>
	<g>
		<g>
			<path d="M37.267,19.332L48.866,0H36.534L25.628,18.177C16.115,19.995,8.9,28.366,8.9,38.4C8.9,49.759,18.141,59,29.5,59
				s20.6-9.241,20.6-20.6C50.1,29.789,44.785,22.406,37.267,19.332z M29.5,54.52c-8.889,0-16.12-7.231-16.12-16.119
				c0-8.889,7.231-16.12,16.12-16.12s16.12,7.231,16.12,16.12C45.62,47.288,38.389,54.52,29.5,54.52z"/>
			<path d="M29.5,24.28c-7.786,0-14.12,6.334-14.12,14.12c0,7.785,6.334,14.119,14.12,14.119S43.62,46.186,43.62,38.4
				S37.286,24.28,29.5,24.28z M35.861,40.511l1.162,6.771c0.064,0.375-0.09,0.754-0.398,0.978c-0.174,0.127-0.381,0.191-0.588,0.191
				c-0.159,0-0.319-0.038-0.465-0.115l-6.081-3.195l-6.081,3.195c-0.338,0.178-0.745,0.147-1.053-0.076s-0.462-0.603-0.398-0.978
				l1.162-6.771l-4.919-4.795c-0.272-0.266-0.371-0.663-0.253-1.024c0.118-0.362,0.431-0.626,0.807-0.681l6.798-0.988l3.04-6.16
				c0.337-0.684,1.457-0.684,1.794,0l3.04,6.16l6.798,0.988c0.376,0.055,0.689,0.318,0.807,0.681
				c0.118,0.361,0.02,0.759-0.253,1.024L35.861,40.511z"/>
			<polygon points="28.1,10 22.667,0 10.334,0 23.1,18 			"/>
		</g>
	</g>
</g>
<g>
</g>
<g>
</g>
<g>
</g>
<g>
</g>
<g>
</g>
<g>
</g>
<g>
</g>
<g>
</g>
<g>
</g>
<g>
</g>
<g>
</g>
<g>
</g>
<g>
</g>
<g>
</g>
<g>
</g>
</svg>
