<?xml version="1.0" encoding="iso-8859-1"?>
<!-- Generator: Adobe Illustrator 19.0.0, SVG Export Plug-In . SVG Version: 6.00 Build 0)  -->
<svg version="1.1" id="Layer_1" xmlns="http://www.w3.org/2000/svg" xmlns:xlink="http://www.w3.org/1999/xlink" x="0px" y="0px"
	 viewBox="0 0 512 512" style="enable-background:new 0 0 512 512;" xml:space="preserve">
<g>
	<g>
		<g>
			<path d="M426.667,0c-47.061,0-85.333,38.272-85.333,85.333s38.272,85.333,85.333,85.333S512,132.395,512,85.333
				S473.728,0,426.667,0z"/>
			<path d="M298.667,85.333c0-14.976,2.731-29.291,7.467-42.667h-220.8C38.272,42.667,0,80.939,0,128v298.667
				C0,473.728,38.272,512,85.333,512H384c47.061,0,85.333-38.272,85.333-85.333v-220.8c-13.376,4.757-27.691,7.467-42.667,7.467
				C356.075,213.333,298.667,155.925,298.667,85.333z"/>
		</g>
	</g>
</g>
<g>
</g>
<g>
</g>
<g>
</g>
<g>
</g>
<g>
</g>
<g>
</g>
<g>
</g>
<g>
</g>
<g>
</g>
<g>
</g>
<g>
</g>
<g>
</g>
<g>
</g>
<g>
</g>
<g>
</g>
</svg>
